# xmcd CD database file
#
# Track frame offsets:
#	150
#	21016
#	37016
#	54961
#
# Disc length: 1009 seconds
#
# Revision: 4
# Processed by: cddbd v1.5.2PL0 Copyright (c) Steve Scherf et al.
# Submitted via: CDex 1.70beta3
#
DISCID=2803ef04
DTITLE=絢香 - 三日月
DYEAR=2006
DGENRE=J-Pop
TTITLE0=三日月
TTITLE1=君のキスで・・・
TTITLE2=夢のカケラ～Live Version～
TTITLE3=三日月 (Inst.)
EXTD=YEAR: 2006
EXTT0=
EXTT1=
EXTT2=
EXTT3=
PLAYORDER=
